BADAdsworth-8PTGXT1db.ufo
<glyph name="exclam" format="2">
  <advance width="898"/>
  <unicode hex="0021"/>
  <outline>
    <contour>
      <point x="294" y="534" type="line"/>
      <point x="284" y="1500" type="line"/>
      <point x="600" y="1500" type="line"/>
      <point x="590" y="534" type="line"/>
    </contour>
    <contour>
      <point x="446" y="-22.0" type="line" smooth="yes"/>
      <point x="526.0" y="-22.0"/>
      <point x="632" y="83"/>
      <point x="632" y="156" type="qcurve" smooth="yes"/>
      <point x="632" y="168" type="line" smooth="yes"/>
      <point x="632" y="240"/>
      <point x="528" y="347"/>
      <point x="446" y="347" type="qcurve" smooth="yes"/>
      <point x="443" y="347" type="line" smooth="yes"/>
      <point x="367" y="347"/>
      <point x="266" y="240"/>
      <point x="266" y="168" type="qcurve" smooth="yes"/>
      <point x="266" y="156" type="line" smooth="yes"/>
      <point x="266" y="81"/>
      <point x="365" y="-22.0"/>
      <point x="443" y="-22.0" type="qcurve" smooth="yes"/>
    </contour>
  </outline>
</glyph>
<glyph name="comma" format="2">
  <advance width="1007"/>
  <unicode hex="002C"/>
  <outline>
    <contour>
      <point x="187.0" y="-137" type="line"/>
      <point x="366" y="244" type="line" smooth="yes"/>
      <point x="387" y="303"/>
      <point x="475.0" y="386.0"/>
      <point x="528" y="386" type="qcurve" smooth="yes"/>
      <point x="534" y="386.0" type="line" smooth="yes"/>
      <point x="612" y="386.0"/>
      <point x="709.0" y="304.0"/>
      <point x="709" y="246.0" type="qcurve" smooth="yes"/>
      <point x="709.0" y="232" type="line" smooth="yes"/>
      <point x="709.0" y="173.0"/>
      <point x="410" y="-139"/>
      <point x="317" y="-218" type="qcurve"/>
    </contour>
  </outline>
</glyph>
<glyph name="hyphen" format="2">
  <advance width="1572"/>
  <unicode hex="002D"/>
  <outline>
    <contour>
      <point x="1306" y="624" type="line"/>
      <point x="266" y="624" type="line"/>
      <point x="266" y="905" type="line"/>
      <point x="1306" y="905" type="line"/>
    </contour>
  </outline>
</glyph>
<glyph name="three" format="2">
  <advance width="1408"/>
  <unicode hex="0033"/>
  <outline>
    <contour>
      <point x="703" y="696" type="qcurve" smooth="yes"/>
      <point x="438" y="697.0" type="line"/>
      <point x="438" y="914.0" type="line"/>
      <point x="752" y="917.0" type="line" smooth="yes"/>
      <point x="864" y="918"/>
      <point x="999.0" y="1006.0"/>
      <point x="999" y="1094.0" type="qcurve" smooth="yes"/>
      <point x="999" y="1120.0" type="line" smooth="yes"/>
      <point x="999.0" y="1188.0"/>
      <point x="856.0" y="1281.0"/>
      <point x="684" y="1281.0" type="qcurve"/>
      <point x="688" y="1281.0" type="line"/>
      <point x="508" y="1281"/>
      <point x="351" y="1167"/>
      <point x="341" y="1089" type="qcurve" smooth="yes"/>
      <point x="338" y="1063.0" type="line"/>
      <point x="58" y="1065.0" type="line"/>
      <point x="62" y="1125" type="line" smooth="yes"/>
      <point x="71" y="1302"/>
      <point x="385" y="1527"/>
      <point x="669" y="1527.0" type="qcurve"/>
      <point x="687" y="1527.0" type="line"/>
      <point x="990.0" y="1527.0"/>
      <point x="1310" y="1319"/>
      <point x="1310" y="1174.0" type="qcurve" smooth="yes"/>
      <point x="1310" y="1147.0" type="line" smooth="yes"/>
      <point x="1310.0" y="1023.0"/>
      <point x="1082" y="847.0"/>
      <point x="968" y="832.0" type="qcurve"/>
      <point x="1105" y="807.0"/>
      <point x="1370.0" y="627.0"/>
      <point x="1370" y="463.0" type="qcurve" smooth="yes"/>
      <point x="1370" y="433.0" type="line" smooth="yes"/>
      <point x="1370.0" y="234.0"/>
      <point x="1009.0" y="-40.0"/>
      <point x="704" y="-40" type="qcurve"/>
      <point x="695" y="-40.0" type="line"/>
      <point x="387" y="-40"/>
      <point x="41" y="211"/>
      <point x="30" y="377" type="qcurve" smooth="yes"/>
      <point x="26" y="467.0" type="line"/>
      <point x="299" y="467.0" type="line"/>
      <point x="301" y="430" type="line" smooth="yes"/>
      <point x="310" y="322"/>
      <point x="501" y="176"/>
      <point x="674" y="176.0" type="qcurve"/>
      <point x="680" y="176" type="line"/>
      <point x="873" y="176"/>
      <point x="1046.0" y="328.0"/>
      <point x="1046" y="465.0" type="qcurve" smooth="yes"/>
      <point x="1046" y="463.0" type="line" smooth="yes"/>
      <point x="1046.0" y="576.0"/>
      <point x="857" y="694"/>
    </contour>
  </outline>
</glyph>
<glyph name="eight" format="2">
  <advance width="1619"/>
  <unicode hex="0038"/>
  <outline>
    <contour>
      <point x="798" y="-25" type="line" smooth="yes"/>
      <point x="491" y="-25"/>
      <point x="46" y="221"/>
      <point x="46" y="418" type="qcurve" smooth="yes"/>
      <point x="46" y="431" type="line" smooth="yes"/>
      <point x="46" y="621"/>
      <point x="485" y="868"/>
      <point x="790" y="868" type="qcurve" smooth="yes"/>
      <point x="802" y="868" type="line" smooth="yes"/>
      <point x="1117" y="868"/>
      <point x="1573" y="621"/>
      <point x="1573" y="431" type="qcurve" smooth="yes"/>
      <point x="1573" y="418" type="line" smooth="yes"/>
      <point x="1573" y="221"/>
      <point x="1124" y="-25"/>
      <point x="808" y="-25" type="qcurve" smooth="yes"/>
    </contour>
    <contour>
      <point x="805" y="193" type="line" smooth="yes"/>
      <point x="1027" y="193"/>
      <point x="1286" y="322"/>
      <point x="1286" y="427" type="qcurve" smooth="yes"/>
      <point x="1286" y="443" type="line" smooth="yes"/>
      <point x="1286" y="549"/>
      <point x="1031" y="682"/>
      <point x="805" y="682" type="qcurve" smooth="yes"/>
      <point x="794" y="682" type="line" smooth="yes"/>
      <point x="582" y="682"/>
      <point x="336" y="549"/>
      <point x="336" y="443" type="qcurve" smooth="yes"/>
      <point x="336" y="427" type="line" smooth="yes"/>
      <point x="336" y="322"/>
      <point x="578" y="193"/>
      <point x="794" y="193" type="qcurve" smooth="yes"/>
    </contour>
    <contour>
      <point x="797" y="707" type="line" smooth="yes"/>
      <point x="524" y="707"/>
      <point x="129" y="925"/>
      <point x="129" y="1097" type="qcurve" smooth="yes"/>
      <point x="129" y="1124" type="line" smooth="yes"/>
      <point x="129" y="1297"/>
      <point x="519" y="1523"/>
      <point x="790" y="1523" type="qcurve" smooth="yes"/>
      <point x="801" y="1523" type="line" smooth="yes"/>
      <point x="1080" y="1523"/>
      <point x="1486" y="1297"/>
      <point x="1486" y="1124" type="qcurve" smooth="yes"/>
      <point x="1486" y="1097" type="line" smooth="yes"/>
      <point x="1486" y="925"/>
      <point x="1085" y="707"/>
      <point x="807" y="707" type="qcurve" smooth="yes"/>
    </contour>
    <contour>
      <point x="800" y="896" type="line" smooth="yes"/>
      <point x="979" y="896"/>
      <point x="1199" y="999"/>
      <point x="1199" y="1082" type="qcurve" smooth="yes"/>
      <point x="1199" y="1096" type="line" smooth="yes"/>
      <point x="1199" y="1179"/>
      <point x="985" y="1285"/>
      <point x="800" y="1285" type="qcurve" smooth="yes"/>
      <point x="795" y="1285" type="line" smooth="yes"/>
      <point x="627" y="1285"/>
      <point x="417" y="1179"/>
      <point x="417" y="1096" type="qcurve" smooth="yes"/>
      <point x="417" y="1082" type="line" smooth="yes"/>
      <point x="417" y="999"/>
      <point x="623" y="896"/>
      <point x="795" y="896" type="qcurve" smooth="yes"/>
    </contour>
  </outline>
</glyph>
<glyph name="equal" format="2">
  <advance width="1920"/>
  <unicode hex="003D"/>
  <outline>
    <contour>
      <point x="1640" y="390" type="line"/>
      <point x="280" y="390" type="line"/>
      <point x="280" y="653" type="line"/>
      <point x="1640" y="653" type="line"/>
    </contour>
    <contour>
      <point x="1640" y="780" type="line"/>
      <point x="280" y="780" type="line"/>
      <point x="280" y="1045" type="line"/>
      <point x="1640" y="1045" type="line"/>
    </contour>
  </outline>
</glyph>
<glyph name="question" format="2">
  <advance width="1378"/>
  <unicode hex="003F"/>
  <outline>
    <contour>
      <point x="579" y="-22" type="line" smooth="yes"/>
      <point x="659" y="-22"/>
      <point x="765" y="83"/>
      <point x="765" y="156" type="qcurve" smooth="yes"/>
      <point x="765" y="168" type="line" smooth="yes"/>
      <point x="765" y="240"/>
      <point x="661" y="347"/>
      <point x="579" y="347" type="qcurve" smooth="yes"/>
      <point x="576" y="347" type="line" smooth="yes"/>
      <point x="500" y="347"/>
      <point x="399" y="240"/>
      <point x="399" y="168" type="qcurve" smooth="yes"/>
      <point x="399" y="156" type="line" smooth="yes"/>
      <point x="399" y="81"/>
      <point x="498" y="-22"/>
      <point x="576" y="-22" type="qcurve" smooth="yes"/>
    </contour>
    <contour>
      <point x="709" y="520" type="line"/>
      <point x="417" y="520" type="line"/>
      <point x="417" y="781" type="line"/>
      <point x="733" y="792"/>
      <point x="961" y="944"/>
      <point x="961" y="1062" type="qcurve" smooth="yes"/>
      <point x="961" y="1081" type="line" smooth="yes"/>
      <point x="961.0" y="1176"/>
      <point x="806" y="1273.0"/>
      <point x="650" y="1273" type="qcurve" smooth="yes"/>
      <point x="645" y="1273" type="line" smooth="yes"/>
      <point x="492" y="1273.0"/>
      <point x="320.0" y="1183"/>
      <point x="321" y="1117" type="qcurve" smooth="yes"/>
      <point x="322" y="1062" type="line"/>
      <point x="-3" y="1064" type="line"/>
      <point x="-3" y="1125" type="line" smooth="yes"/>
      <point x="-3" y="1304"/>
      <point x="371" y="1522.0"/>
      <point x="675" y="1522" type="qcurve" smooth="yes"/>
      <point x="683" y="1522" type="line" smooth="yes"/>
      <point x="972.0" y="1523.0"/>
      <point x="1324.0" y="1295.0"/>
      <point x="1324" y="1096" type="qcurve" smooth="yes"/>
      <point x="1324" y="1069" type="line" smooth="yes"/>
      <point x="1324" y="879"/>
      <point x="1031" y="605"/>
      <point x="709" y="596" type="qcurve"/>
    </contour>
  </outline>
</glyph>
<glyph name="at" format="2">
  <advance width="2168"/>
  <unicode hex="0040"/>
  <outline>
    <contour>
      <point x="1332" y="691" type="qcurve" smooth="yes"/>
      <point x="1327" y="662" type="line" smooth="yes"/>
      <point x="1295" y="475"/>
      <point x="1073" y="251"/>
      <point x="913" y="251" type="qcurve" smooth="yes"/>
      <point x="907" y="251" type="line" smooth="yes"/>
      <point x="732.0" y="251"/>
      <point x="539" y="543"/>
      <point x="570" y="721" type="qcurve" smooth="yes"/>
      <point x="575" y="750" type="line" smooth="yes"/>
      <point x="606" y="932"/>
      <point x="851" y="1121"/>
      <point x="1029" y="1121" type="qcurve" smooth="yes"/>
      <point x="1036" y="1121" type="line" smooth="yes"/>
      <point x="1194" y="1121"/>
      <point x="1364" y="877"/>
    </contour>
    <contour>
      <point x="1211" y="673" type="line" smooth="yes"/>
      <point x="1234" y="796"/>
      <point x="1154.0" y="924.0"/>
      <point x="1057" y="924" type="qcurve" smooth="yes"/>
      <point x="1053" y="924" type="line" smooth="yes"/>
      <point x="979" y="924.0"/>
      <point x="883" y="841"/>
      <point x="858" y="727" type="qcurve" smooth="yes"/>
      <point x="854" y="709" type="line" smooth="yes"/>
      <point x="828" y="592"/>
      <point x="899.0" y="445"/>
      <point x="998" y="445" type="qcurve" smooth="yes"/>
      <point x="1002" y="445" type="line" smooth="yes"/>
      <point x="1087" y="445"/>
      <point x="1189" y="543"/>
      <point x="1208" y="655" type="qcurve" smooth="yes"/>
    </contour>
    <contour>
      <point x="1175" y="558" type="qcurve" smooth="yes"/>
      <point x="1293" y="1113" type="line"/>
      <point x="1558" y="1113" type="line"/>
      <point x="1469" y="609" type="line" smooth="yes"/>
      <point x="1458" y="549"/>
      <point x="1493" y="458"/>
      <point x="1550" y="458" type="qcurve" smooth="yes"/>
      <point x="1706" y="458"/>
      <point x="1898" y="629"/>
      <point x="1898" y="811" type="qcurve" smooth="yes"/>
      <point x="1898" y="1017"/>
      <point x="1506" y="1362"/>
      <point x="1090" y="1362" type="qcurve" smooth="yes"/>
      <point x="697" y="1362"/>
      <point x="251" y="971"/>
      <point x="251" y="675" type="qcurve" smooth="yes"/>
      <point x="251" y="357"/>
      <point x="732" y="-7"/>
      <point x="1072" y="-7" type="qcurve" smooth="yes"/>
      <point x="1338" y="-7"/>
      <point x="1625" y="102"/>
      <point x="1680" y="151" type="qcurve"/>
      <point x="1788" y="18" type="line"/>
      <point x="1686" y="-79"/>
      <point x="1328" y="-182"/>
      <point x="1067" y="-182" type="qcurve" smooth="yes"/>
      <point x="672" y="-182"/>
      <point x="50" y="282"/>
      <point x="50" y="675" type="qcurve" smooth="yes"/>
      <point x="50" y="1057"/>
      <point x="644" y="1529"/>
      <point x="1090" y="1529" type="qcurve" smooth="yes"/>
      <point x="1566" y="1529"/>
      <point x="2091" y="1130"/>
      <point x="2091" y="830" type="qcurve" smooth="yes"/>
      <point x="2091" y="563"/>
      <point x="1688" y="269"/>
      <point x="1428" y="269" type="qcurve" smooth="yes"/>
      <point x="1289" y="269"/>
      <point x="1164" y="449"/>
    </contour>
  </outline>
</glyph>
<glyph name="D" format="2">
  <advance width="1979"/>
  <unicode hex="0044"/>
  <outline>
    <contour>
      <point x="260" y="0" type="line"/>
      <point x="260" y="1500" type="line"/>
      <point x="575" y="1500" type="line"/>
      <point x="575" y="0" type="line"/>
    </contour>
    <contour>
      <point x="1051.0" y="247" type="line" smooth="yes"/>
      <point x="1272.0" y="247.0"/>
      <point x="1543.0" y="503"/>
      <point x="1543.0" y="744" type="qcurve" smooth="yes"/>
      <point x="1543.0" y="748" type="line" smooth="yes"/>
      <point x="1543.0" y="989"/>
      <point x="1268.0" y="1252.0"/>
      <point x="1047.0" y="1252.0" type="qcurve" smooth="yes"/>
      <point x="491" y="1252" type="line"/>
      <point x="491" y="1500" type="line"/>
      <point x="1106.0" y="1500" type="line" smooth="yes"/>
      <point x="1416.0" y="1500.0"/>
      <point x="1865.0" y="1095"/>
      <point x="1865.0" y="752" type="qcurve" smooth="yes"/>
      <point x="1865.0" y="741" type="line" smooth="yes"/>
      <point x="1865.0" y="401"/>
      <point x="1411.0" y="0.0"/>
      <point x="1102.0" y="0.0" type="qcurve" smooth="yes"/>
      <point x="491" y="0" type="line"/>
      <point x="491" y="247" type="line"/>
    </contour>
  </outline>
</glyph>
<glyph name="F" format="2">
  <advance width="1357"/>
  <unicode hex="0046"/>
  <outline>
    <contour>
      <point x="260" y="0" type="line"/>
      <point x="260" y="1500" type="line"/>
      <point x="575" y="1500" type="line"/>
      <point x="575" y="0" type="line"/>
    </contour>
    <contour>
      <point x="1159" y="646" type="line"/>
      <point x="434" y="646" type="line"/>
      <point x="434" y="896" type="line"/>
      <point x="1159" y="896" type="line"/>
    </contour>
    <contour>
      <point x="1349" y="1250" type="line"/>
      <point x="434" y="1250" type="line"/>
      <point x="434" y="1500" type="line"/>
      <point x="1349" y="1500" type="line"/>
    </contour>
  </outline>
</glyph>
<glyph name="H" format="2">
  <advance width="2126"/>
  <unicode hex="0048"/>
  <outline>
    <contour>
      <point x="260" y="0" type="line"/>
      <point x="260" y="1500" type="line"/>
      <point x="575" y="1500" type="line"/>
      <point x="575" y="0" type="line"/>
    </contour>
    <contour>
      <point x="1551" y="0" type="line"/>
      <point x="1551" y="1500" type="line"/>
      <point x="1866" y="1500" type="line"/>
      <point x="1866" y="0" type="line"/>
    </contour>
    <contour>
      <point x="1746" y="659" type="line"/>
      <point x="406" y="659" type="line"/>
      <point x="406" y="917" type="line"/>
      <point x="1746" y="917" type="line"/>
    </contour>
  </outline>
</glyph>
<glyph name="K" format="2">
  <advance width="1521"/>
  <unicode hex="004B"/>
  <outline>
    <contour>
      <point x="260" y="0" type="line"/>
      <point x="260" y="1500" type="line"/>
      <point x="575" y="1500" type="line"/>
      <point x="575" y="0" type="line"/>
    </contour>
    <contour>
      <point x="483" y="716" type="line"/>
      <point x="684" y="957" type="line"/>
      <point x="1192" y="1500" type="line"/>
      <point x="1564" y="1500" type="line"/>
      <point x="776" y="686" type="line"/>
      <point x="732" y="677" type="line"/>
      <point x="483" y="398" type="line"/>
    </contour>
    <contour>
      <point x="540" y="714" type="line"/>
      <point x="766" y="904" type="line"/>
      <point x="1664" y="0" type="line"/>
      <point x="1259" y="0" type="line"/>
    </contour>
  </outline>
</glyph>
<glyph name="L" format="2">
  <advance width="1388"/>
  <unicode hex="004C"/>
  <outline>
    <contour>
      <point x="260" y="0" type="line"/>
      <point x="260" y="1500" type="line"/>
      <point x="574" y="1500" type="line"/>
      <point x="574" y="0" type="line"/>
    </contour>
    <contour>
      <point x="1370" y="0" type="line"/>
      <point x="340" y="0" type="line"/>
      <point x="340" y="250" type="line"/>
      <point x="1370" y="250" type="line"/>
    </contour>
  </outline>
</glyph>
<glyph name="M" format="2">
  <advance width="2611"/>
  <unicode hex="004D"/>
  <outline>
    <contour>
      <point x="260" y="0" type="line"/>
      <point x="260" y="1500" type="line"/>
      <point x="724" y="1500" type="line"/>
      <point x="1313" y="293" type="line"/>
      <point x="1326" y="293" type="line"/>
      <point x="1864" y="1500" type="line"/>
      <point x="2351" y="1500" type="line"/>
      <point x="2351" y="0" type="line"/>
      <point x="2046" y="0" type="line"/>
      <point x="2046" y="1262" type="line"/>
      <point x="1448" y="0" type="line"/>
      <point x="1148" y="0" type="line"/>
      <point x="540" y="1259" type="line"/>
      <point x="540" y="0" type="line"/>
    </contour>
  </outline>
</glyph>
<glyph name="R" format="2">
  <advance width="1686"/>
  <unicode hex="0052"/>
  <outline>
    <contour>
      <point x="260" y="0" type="line"/>
      <point x="260" y="1500" type="line"/>
      <point x="574" y="1500" type="line"/>
      <point x="574" y="0" type="line"/>
    </contour>
    <contour>
      <point x="1028" y="572" type="qcurve" smooth="yes"/>
      <point x="434" y="572" type="line"/>
      <point x="434" y="819" type="line"/>
      <point x="881" y="819" type="line" smooth="yes"/>
      <point x="1076" y="819"/>
      <point x="1253" y="926"/>
      <point x="1253" y="1048" type="qcurve" smooth="yes"/>
      <point x="1253" y="1060" type="line" smooth="yes"/>
      <point x="1253" y="1172"/>
      <point x="1066" y="1250"/>
      <point x="901" y="1250" type="qcurve" smooth="yes"/>
      <point x="434" y="1250" type="line"/>
      <point x="434" y="1500" type="line"/>
      <point x="1005" y="1500" type="line" smooth="yes"/>
      <point x="1246" y="1500"/>
      <point x="1552" y="1288"/>
      <point x="1552" y="1070" type="qcurve" smooth="yes"/>
      <point x="1552" y="1052" type="line" smooth="yes"/>
      <point x="1552" y="806"/>
      <point x="1225" y="572"/>
    </contour>
    <contour>
      <point x="1154" y="759" type="line"/>
      <point x="1686" y="0" type="line"/>
      <point x="1319" y="0" type="line"/>
      <point x="880" y="651" type="line"/>
    </contour>
  </outline>
</glyph>
<glyph name="S" format="2">
  <advance width="1659"/>
  <unicode hex="0053"/>
  <outline>
    <contour>
      <point x="1304.0" y="414" type="line" smooth="yes"/>
      <point x="1304" y="498"/>
      <point x="1143" y="624"/>
      <point x="774" y="663" type="qcurve" smooth="yes"/>
      <point x="355" y="707"/>
      <point x="89" y="911.0"/>
      <point x="89" y="1096" type="qcurve" smooth="yes"/>
      <point x="89" y="1113" type="line" smooth="yes"/>
      <point x="89" y="1281.0"/>
      <point x="439.0" y="1530.0"/>
      <point x="804" y="1530" type="qcurve" smooth="yes"/>
      <point x="816" y="1530" type="line" smooth="yes"/>
      <point x="1206.0" y="1530.0"/>
      <point x="1556.0" y="1304"/>
      <point x="1543" y="1110" type="qcurve" smooth="yes"/>
      <point x="1543" y="1067" type="line"/>
      <point x="1239" y="1067" type="line"/>
      <point x="1239.0" y="1117" type="line" smooth="yes"/>
      <point x="1239" y="1185"/>
      <point x="1068" y="1262"/>
      <point x="815.0" y="1262.0" type="qcurve" smooth="yes"/>
      <point x="808" y="1262" type="line" smooth="yes"/>
      <point x="586" y="1262"/>
      <point x="395.0" y="1184.0"/>
      <point x="395" y="1116" type="qcurve" smooth="yes"/>
      <point x="395.0" y="1100" type="line" smooth="yes"/>
      <point x="395.0" y="1029.0"/>
      <point x="527" y="961"/>
      <point x="914" y="924" type="qcurve" smooth="yes"/>
      <point x="1346" y="878"/>
      <point x="1607.0" y="659.0"/>
      <point x="1607" y="478" type="qcurve" smooth="yes"/>
      <point x="1607.0" y="457" type="line" smooth="yes"/>
      <point x="1607.0" y="248.0"/>
      <point x="1233.0" y="-33.0"/>
      <point x="845" y="-33" type="qcurve" smooth="yes"/>
      <point x="840" y="-33" type="line" smooth="yes"/>
      <point x="425" y="-33"/>
      <point x="48" y="221"/>
      <point x="50" y="396" type="qcurve" smooth="yes"/>
      <point x="50" y="476" type="line"/>
      <point x="351" y="476" type="line"/>
      <point x="351.0" y="411" type="line" smooth="yes"/>
      <point x="351.0" y="314.0"/>
      <point x="560" y="213"/>
      <point x="835.0" y="213" type="qcurve" smooth="yes"/>
      <point x="840.0" y="213" type="line" smooth="yes"/>
      <point x="1118" y="213"/>
      <point x="1304.0" y="333.0"/>
      <point x="1304.0" y="401" type="qcurve" smooth="yes"/>
    </contour>
  </outline>
</glyph>
<glyph name="X" format="2">
  <advance width="1588"/>
  <unicode hex="0058"/>
  <outline>
    <contour>
      <point x="-16" y="0" type="line"/>
      <point x="673" y="880" type="line"/>
      <point x="753" y="922" type="line"/>
      <point x="1207" y="1500" type="line"/>
      <point x="1557" y="1500" type="line"/>
      <point x="913" y="674" type="line"/>
      <point x="831" y="629" type="line"/>
      <point x="334" y="0" type="line"/>
    </contour>
    <contour>
      <point x="1222" y="0" type="line"/>
      <point x="702" y="645" type="line"/>
      <point x="669" y="679" type="line"/>
      <point x="25" y="1500" type="line"/>
      <point x="404" y="1500" type="line"/>
      <point x="880" y="888" type="line"/>
      <point x="909" y="859" type="line"/>
      <point x="1604" y="0" type="line"/>
    </contour>
  </outline>
</glyph>
<glyph name="Y" format="2">
  <advance width="1550"/>
  <unicode hex="0059"/>
  <outline>
    <contour>
      <point x="619" y="500" type="line"/>
      <point x="-90" y="1500" type="line"/>
      <point x="294" y="1500" type="line"/>
      <point x="773" y="783" type="line"/>
      <point x="1287" y="1500" type="line"/>
      <point x="1640" y="1500" type="line"/>
      <point x="932" y="500" type="line"/>
    </contour>
    <contour>
      <point x="618" y="0" type="line"/>
      <point x="618" y="570" type="line"/>
      <point x="933" y="570" type="line"/>
      <point x="933" y="0" type="line"/>
    </contour>
  </outline>
</glyph>
<glyph name="bracketleft" format="2">
  <advance width="1040"/>
  <unicode hex="005B"/>
  <outline>
    <contour>
      <point x="208" y="-280" type="line"/>
      <point x="208" y="1500" type="line"/>
      <point x="509" y="1500" type="line"/>
      <point x="509" y="-280" type="line"/>
    </contour>
    <contour>
      <point x="1046" y="-280" type="line"/>
      <point x="389" y="-280" type="line"/>
      <point x="389" y="-35" type="line"/>
      <point x="1046" y="-35" type="line"/>
    </contour>
    <contour>
      <point x="1046" y="1255" type="line"/>
      <point x="384" y="1255" type="line"/>
      <point x="384" y="1500" type="line"/>
      <point x="1046" y="1500" type="line"/>
    </contour>
  </outline>
</glyph>
<glyph name="backslash" format="2">
  <advance width="1060"/>
  <unicode hex="005C"/>
  <outline>
    <contour>
      <point x="1180" y="0" type="line"/>
      <point x="900" y="0" type="line"/>
      <point x="-120" y="1500" type="line"/>
      <point x="160" y="1500" type="line"/>
    </contour>
  </outline>
</glyph>
<glyph name="a" format="2">
  <advance width="1602"/>
  <unicode hex="0061"/>
  <outline>
    <contour>
      <point x="180" y="966" type="line"/>
      <point x="254" y="1000"/>
      <point x="590" y="1081.0"/>
      <point x="805" y="1081.0" type="qcurve" smooth="yes"/>
      <point x="1136" y="1081"/>
      <point x="1411" y="866"/>
      <point x="1412" y="642" type="qcurve" smooth="yes"/>
      <point x="1416" y="1" type="line"/>
      <point x="1126" y="1" type="line"/>
      <point x="1116.0" y="648" type="line" smooth="yes"/>
      <point x="1114" y="751"/>
      <point x="969.0" y="866.0"/>
      <point x="805" y="866.0" type="qcurve" smooth="yes"/>
      <point x="630" y="866"/>
      <point x="307" y="798"/>
      <point x="215" y="758" type="qcurve"/>
    </contour>
    <contour>
      <point x="1287" y="300" type="line"/>
      <point x="1237" y="187"/>
      <point x="852" y="-22"/>
      <point x="620" y="-22" type="qcurve" smooth="yes"/>
      <point x="390" y="-22"/>
      <point x="68" y="178"/>
      <point x="68" y="346" type="qcurve" smooth="yes"/>
      <point x="68" y="499"/>
      <point x="380" y="709"/>
      <point x="668" y="709.0" type="qcurve" smooth="yes"/>
      <point x="872" y="709"/>
      <point x="1188" y="598"/>
      <point x="1289" y="526" type="qcurve"/>
      <point x="1289" y="441" type="line"/>
      <point x="1153" y="474"/>
      <point x="826" y="517"/>
      <point x="688" y="517.0" type="qcurve" smooth="yes"/>
      <point x="565" y="517"/>
      <point x="374" y="437"/>
      <point x="374.0" y="343" type="qcurve" smooth="yes"/>
      <point x="374" y="261"/>
      <point x="551" y="176.0"/>
      <point x="702" y="176.0" type="qcurve" smooth="yes"/>
      <point x="873" y="176"/>
      <point x="1163" y="310"/>
      <point x="1287" y="417" type="qcurve"/>
    </contour>
  </outline>
</glyph>
<glyph name="d" format="2">
  <advance width="1853"/>
  <unicode hex="0064"/>
  <outline>
    <contour>
      <point x="1628" y="0" type="line"/>
      <point x="1348" y="0" type="line"/>
      <point x="1328" y="1540" type="line"/>
      <point x="1628" y="1540" type="line"/>
    </contour>
    <contour>
      <point x="1484" y="541" type="qcurve" smooth="yes"/>
      <point x="1484" y="506" type="line" smooth="yes"/>
      <point x="1484.0" y="275.0"/>
      <point x="1114.0" y="-25.0"/>
      <point x="836" y="-25" type="qcurve" smooth="yes"/>
      <point x="827" y="-25" type="line" smooth="yes"/>
      <point x="492" y="-25"/>
      <point x="98" y="284"/>
      <point x="98" y="515" type="qcurve" smooth="yes"/>
      <point x="98" y="528" type="line" smooth="yes"/>
      <point x="98" y="762"/>
      <point x="508" y="1083"/>
      <point x="842" y="1083" type="qcurve" smooth="yes"/>
      <point x="852" y="1083" type="line" smooth="yes"/>
      <point x="1141.0" y="1083.0"/>
      <point x="1484.0" y="770.0"/>
    </contour>
    <contour>
      <point x="1340" y="533.0" type="line" smooth="yes"/>
      <point x="1340" y="731.0"/>
      <point x="1074" y="878.0"/>
      <point x="863" y="878.0" type="qcurve" smooth="yes"/>
      <point x="853" y="878.0" type="line" smooth="yes"/>
      <point x="639" y="878.0"/>
      <point x="399" y="700.0"/>
      <point x="399" y="525.0" type="qcurve" smooth="yes"/>
      <point x="399" y="516.0" type="line" smooth="yes"/>
      <point x="399" y="343.0"/>
      <point x="643" y="172.0"/>
      <point x="853" y="172.0" type="qcurve" smooth="yes"/>
      <point x="863" y="172.0" type="line" smooth="yes"/>
      <point x="1068" y="172.0"/>
      <point x="1340" y="326.0"/>
      <point x="1340" y="509.0" type="qcurve" smooth="yes"/>
    </contour>
  </outline>
</glyph>
<glyph name="f" format="2">
  <advance width="961"/>
  <unicode hex="0066"/>
  <outline>
    <contour>
      <point x="955" y="819" type="line"/>
      <point x="20" y="819" type="line"/>
      <point x="20" y="1040" type="line"/>
      <point x="955" y="1040" type="line"/>
    </contour>
    <contour>
      <point x="576.0" y="1158.0" type="qcurve" smooth="yes"/>
      <point x="586" y="0" type="line"/>
      <point x="298" y="0.0" type="line"/>
      <point x="298.0" y="1215.0" type="line" smooth="yes"/>
      <point x="298" y="1385"/>
      <point x="563" y="1605.0"/>
      <point x="738" y="1605.0" type="qcurve" smooth="yes"/>
      <point x="822.0" y="1605.0"/>
      <point x="968.0" y="1584.0"/>
      <point x="996" y="1577" type="qcurve"/>
      <point x="989" y="1373" type="line"/>
      <point x="963.0" y="1379.0"/>
      <point x="841" y="1395"/>
      <point x="796" y="1395" type="qcurve" smooth="yes"/>
      <point x="705" y="1395"/>
      <point x="576.0" y="1281"/>
    </contour>
  </outline>
</glyph>
<glyph name="g" format="2">
  <advance width="1853"/>
  <unicode hex="0067"/>
  <outline>
    <contour>
      <point x="1463" y="541" type="qcurve" smooth="yes"/>
      <point x="1463" y="506" type="line" smooth="yes"/>
      <point x="1463.0" y="315.0"/>
      <point x="1111" y="-15"/>
      <point x="834" y="-15" type="qcurve" smooth="yes"/>
      <point x="825" y="-15" type="line" smooth="yes"/>
      <point x="465" y="-15"/>
      <point x="98" y="297.0"/>
      <point x="98" y="526" type="qcurve" smooth="yes"/>
      <point x="98" y="551" type="line" smooth="yes"/>
      <point x="98" y="772"/>
      <point x="507" y="1083"/>
      <point x="840" y="1083" type="qcurve" smooth="yes"/>
      <point x="850" y="1083" type="line" smooth="yes"/>
      <point x="1130" y="1083"/>
      <point x="1463" y="760"/>
    </contour>
    <contour>
      <point x="1347" y="533.0" type="line" smooth="yes"/>
      <point x="1347.0" y="731.0"/>
      <point x="1079" y="868"/>
      <point x="867" y="868.0" type="qcurve" smooth="yes"/>
      <point x="857" y="868.0" type="line" smooth="yes"/>
      <point x="641" y="868"/>
      <point x="399" y="700.0"/>
      <point x="399" y="533.0" type="qcurve" smooth="yes"/>
      <point x="399" y="519.0" type="line" smooth="yes"/>
      <point x="399" y="353.0"/>
      <point x="645" y="182.0"/>
      <point x="857" y="182.0" type="qcurve" smooth="yes"/>
      <point x="867" y="182.0" type="line" smooth="yes"/>
      <point x="1071" y="182.0"/>
      <point x="1347" y="336.0"/>
      <point x="1347" y="509.0" type="qcurve" smooth="yes"/>
    </contour>
    <contour>
      <point x="252" y="-214.0" type="line"/>
      <point x="327" y="-227.0"/>
      <point x="553" y="-265.0"/>
      <point x="679" y="-265.0" type="qcurve" smooth="yes"/>
      <point x="963.0" y="-265.0"/>
      <point x="1347.0" y="-88"/>
      <point x="1347" y="130.0" type="qcurve" smooth="yes"/>
      <point x="1347" y="1030" type="line"/>
      <point x="1628" y="1030" type="line"/>
      <point x="1628.0" y="150.0" type="line" smooth="yes"/>
      <point x="1628" y="-233"/>
      <point x="1116" y="-490"/>
      <point x="751" y="-490" type="qcurve" smooth="yes"/>
      <point x="526" y="-490"/>
      <point x="314" y="-464.0"/>
      <point x="250" y="-441.0" type="qcurve"/>
    </contour>
  </outline>
</glyph>
<glyph name="l" format="2">
  <advance width="833"/>
  <unicode hex="006C"/>
  <outline>
    <contour>
      <point x="222" y="196" type="qcurve" smooth="yes"/>
      <point x="232" y="1539" type="line"/>
      <point x="522" y="1539" type="line"/>
      <point x="522" y="1" type="line"/>
      <point x="341" y="1"/>
      <point x="221.0" y="97.0"/>
    </contour>
    <contour>
      <point x="760" y="54" type="line"/>
      <point x="523" y="1" type="line"/>
      <point x="222" y="225" type="line"/>
      <point x="760" y="290" type="line"/>
    </contour>
  </outline>
</glyph>
<glyph name="n" format="2">
  <advance width="1650"/>
  <unicode hex="006E"/>
  <outline>
    <contour>
      <point x="225" y="0" type="line"/>
      <point x="225" y="1040" type="line"/>
      <point x="515" y="1040" type="line"/>
      <point x="525" y="0" type="line"/>
    </contour>
    <contour>
      <point x="333" y="650" type="line"/>
      <point x="390" y="817"/>
      <point x="743.0" y="1080.0"/>
      <point x="963" y="1080.0" type="qcurve" smooth="yes"/>
      <point x="1191" y="1080"/>
      <point x="1464.0" y="852.0"/>
      <point x="1464" y="645" type="qcurve" smooth="yes"/>
      <point x="1464" y="0" type="line"/>
      <point x="1163" y="0" type="line"/>
      <point x="1163.0" y="617" type="line" smooth="yes"/>
      <point x="1163.0" y="745.0"/>
      <point x="1006" y="855.0"/>
      <point x="874" y="855.0" type="qcurve" smooth="yes"/>
      <point x="734" y="855"/>
      <point x="460" y="640"/>
      <point x="373" y="479" type="qcurve"/>
    </contour>
  </outline>
</glyph>
<glyph name="s" format="2">
  <advance width="1630"/>
  <unicode hex="0073"/>
  <outline>
    <contour>
      <point x="1233.0" y="328.0" type="line" smooth="yes"/>
      <point x="1233" y="365"/>
      <point x="1121.0" y="415"/>
      <point x="754.0" y="444" type="qcurve" smooth="yes"/>
      <point x="376" y="470"/>
      <point x="108.0" y="627.0"/>
      <point x="108.0" y="760" type="qcurve" smooth="yes"/>
      <point x="108.0" y="770" type="line" smooth="yes"/>
      <point x="108.0" y="905"/>
      <point x="475.0" y="1081.0"/>
      <point x="809.0" y="1081" type="qcurve" smooth="yes"/>
      <point x="823.0" y="1081" type="line" smooth="yes"/>
      <point x="1166.0" y="1081.0"/>
      <point x="1464" y="917"/>
      <point x="1484.0" y="757" type="qcurve" smooth="yes"/>
      <point x="1488.0" y="700" type="line"/>
      <point x="1190.0" y="700" type="line"/>
      <point x="1188.0" y="747.0" type="line" smooth="yes"/>
      <point x="1185" y="826"/>
      <point x="974.0" y="873.0"/>
      <point x="817.0" y="873.0" type="qcurve" smooth="yes"/>
      <point x="807.0" y="873.0" type="line" smooth="yes"/>
      <point x="630" y="873"/>
      <point x="437" y="829"/>
      <point x="437.0" y="776.0" type="qcurve" smooth="yes"/>
      <point x="437.0" y="770.0" type="line" smooth="yes"/>
      <point x="437" y="732"/>
      <point x="573.0" y="694"/>
      <point x="922.0" y="671" type="qcurve" smooth="yes"/>
      <point x="1275.0" y="646"/>
      <point x="1547" y="493"/>
      <point x="1547.0" y="371" type="qcurve" smooth="yes"/>
      <point x="1547.0" y="350" type="line" smooth="yes"/>
      <point x="1547" y="195"/>
      <point x="1192.0" y="-25.0"/>
      <point x="835.0" y="-25" type="qcurve" smooth="yes"/>
      <point x="830.0" y="-25" type="line" smooth="yes"/>
      <point x="449.0" y="-25"/>
      <point x="125.0" y="162"/>
      <point x="103.0" y="304.0" type="qcurve" smooth="yes"/>
      <point x="96.0" y="381" type="line"/>
      <point x="444.0" y="381.0" type="line"/>
      <point x="446.0" y="353.0" type="line" smooth="yes"/>
      <point x="453" y="255"/>
      <point x="661.0" y="177.0"/>
      <point x="838.0" y="177.0" type="qcurve" smooth="yes"/>
      <point x="844.0" y="177.0" type="line" smooth="yes"/>
      <point x="1014.0" y="177.0"/>
      <point x="1233" y="245"/>
      <point x="1233.0" y="318.0" type="qcurve" smooth="yes"/>
    </contour>
  </outline>
</glyph>
<glyph name="t" format="2">
  <advance width="1083"/>
  <unicode hex="0074"/>
  <outline>
    <contour>
      <point x="891" y="809" type="line"/>
      <point x="-3" y="809" type="line"/>
      <point x="-3" y="1037" type="line"/>
      <point x="891" y="1037" type="line"/>
    </contour>
    <contour>
      <point x="563.0" y="364" type="line" smooth="yes"/>
      <point x="563.0" y="275.0"/>
      <point x="639.0" y="193.0"/>
      <point x="680.0" y="193" type="qcurve" smooth="yes"/>
      <point x="731" y="193"/>
      <point x="805.0" y="219"/>
      <point x="815.0" y="227" type="qcurve"/>
      <point x="875.0" y="26" type="line"/>
      <point x="834.0" y="2"/>
      <point x="737.0" y="-22"/>
      <point x="641" y="-22" type="qcurve"/>
      <point x="493.0" y="-22"/>
      <point x="279" y="187.0"/>
      <point x="279.0" y="355" type="qcurve" smooth="yes"/>
      <point x="279" y="1279" type="line"/>
      <point x="563" y="1279" type="line"/>
    </contour>
  </outline>
</glyph>
<glyph name="x" format="2">
  <advance width="1334"/>
  <unicode hex="0078"/>
  <outline>
    <contour>
      <point x="-10" y="1" type="line"/>
      <point x="1028" y="1041" type="line"/>
      <point x="1355" y="1041" type="line"/>
      <point x="317" y="1" type="line"/>
    </contour>
    <contour>
      <point x="1029" y="1" type="line"/>
      <point x="2" y="1041" type="line"/>
      <point x="349" y="1041" type="line"/>
      <point x="1375" y="1" type="line"/>
    </contour>
  </outline>
</glyph>
<glyph name="y" format="2">
  <advance width="1415"/>
  <unicode hex="0079"/>
  <outline>
    <contour>
      <point x="543" y="-9" type="qcurve"/>
      <point x="-57" y="1040" type="line"/>
      <point x="273" y="1040" type="line"/>
      <point x="723" y="239" type="line"/>
      <point x="1175" y="1040" type="line"/>
      <point x="1465" y="1040" type="line"/>
      <point x="889" y="33" type="line" smooth="yes"/>
      <point x="730" y="-277"/>
      <point x="370" y="-487"/>
      <point x="175" y="-487" type="qcurve" smooth="yes"/>
      <point x="75" y="-487"/>
      <point x="3" y="-487"/>
      <point x="-43" y="-472" type="qcurve"/>
      <point x="-27" y="-225" type="line"/>
      <point x="2.0" y="-233.0"/>
      <point x="97.0" y="-242.0"/>
      <point x="158" y="-242" type="qcurve" smooth="yes"/>
      <point x="251" y="-242"/>
      <point x="494.0" y="-131"/>
    </contour>
  </outline>
</glyph>
<glyph name="braceleft" format="2">
  <advance width="1040"/>
  <unicode hex="007B"/>
  <outline>
    <contour>
      <point x="104" y="491" type="line"/>
      <point x="311" y="490"/>
      <point x="406" y="470"/>
      <point x="406.0" y="434.0" type="qcurve" smooth="yes"/>
      <point x="406" y="403"/>
      <point x="351" y="324"/>
      <point x="320" y="283" type="qcurve" smooth="yes"/>
      <point x="288" y="238"/>
      <point x="207" y="91"/>
      <point x="207" y="4" type="qcurve" smooth="yes"/>
      <point x="207" y="-141"/>
      <point x="593" y="-339"/>
      <point x="933" y="-344" type="qcurve"/>
      <point x="1001" y="-106" type="line"/>
      <point x="750" y="-113"/>
      <point x="546" y="-24"/>
      <point x="546.0" y="7.0" type="qcurve" smooth="yes"/>
      <point x="546" y="70"/>
      <point x="606" y="191"/>
      <point x="632" y="234" type="qcurve" smooth="yes"/>
      <point x="661" y="282"/>
      <point x="729" y="394"/>
      <point x="729.0" y="473.0" type="qcurve" smooth="yes"/>
      <point x="729" y="504"/>
      <point x="644" y="583"/>
      <point x="590" y="609" type="qcurve"/>
      <point x="644" y="637"/>
      <point x="729" y="716"/>
      <point x="729.0" y="743" type="qcurve" smooth="yes"/>
      <point x="729" y="826"/>
      <point x="661" y="938"/>
      <point x="632" y="987" type="qcurve" smooth="yes"/>
      <point x="606" y="1029"/>
      <point x="546" y="1150"/>
      <point x="546.0" y="1223" type="qcurve" smooth="yes"/>
      <point x="546" y="1258"/>
      <point x="729" y="1330"/>
      <point x="1012" y="1326" type="qcurve"/>
      <point x="939" y="1552" type="line"/>
      <point x="594" y="1551"/>
      <point x="207" y="1349"/>
      <point x="207" y="1212" type="qcurve" smooth="yes"/>
      <point x="207" y="1129"/>
      <point x="288" y="982"/>
      <point x="320" y="938" type="qcurve" smooth="yes"/>
      <point x="351" y="896"/>
      <point x="406" y="817"/>
      <point x="406.0" y="787" type="qcurve" smooth="yes"/>
      <point x="406" y="750"/>
      <point x="311" y="750"/>
      <point x="104" y="750" type="qcurve"/>
    </contour>
  </outline>
</glyph>
